<svg version="1.1" id="Layer_1" xmlns:x="ns_extend;" xmlns:i="ns_ai;" xmlns:graph="ns_graphs;" xmlns="http://www.w3.org/2000/svg" xmlns:xlink="http://www.w3.org/1999/xlink" x="0px" y="0px" viewBox="0 0 629.6 153" style="enable-background:new 0 0 629.6 153;" xml:space="preserve">
 <style type="text/css">
  .st0{fill:#FF8900;}
 </style>
 <metadata>
  <sfw xmlns="ns_sfw;">
   <slices>
   </slices>
   <sliceSourceBounds bottomLeftOrigin="true" height="153" width="629.6" x="-531.8" y="0.3">
   </sliceSourceBounds>
  </sfw>
 </metadata>
 <g>
  <path class="st0" d="M252.7,43.7c-14.6,0-24.6,4.7-32,15.1c-5.8-9.2-17.5-15.1-30.3-15.1c-11.4,0-18.9,3-26.4,11v-0.5
		c0-2.8-1.1-5.5-3-7.5s-4.5-3.1-7.3-3.1c-2.7,0-5.3,1.1-7.3,3.1c-1.9,2-3,4.7-3,7.5v87.1c0,3,1.2,5.9,3.2,8s4.8,3.3,7.8,3.3
		c2.9,0,5.7-1.2,7.8-3.3c2.1-2.1,3.2-5,3.2-8v-49c0-18.8,7.1-27.6,22.2-27.6c13.5,0,20.3,8.6,20.3,25.6v51c0,3,1.2,5.9,3.2,8
		c2.1,2.1,4.8,3.3,7.8,3.3c2.9,0,5.7-1.2,7.7-3.3c2.1-2.1,3.2-5,3.2-8V92c0-19.2,6.4-27.4,21.3-27.4c14,0,21.2,9.3,21.2,27.7v48.8
		c0,3,1.2,5.9,3.2,8c2.1,2.1,4.8,3.3,7.7,3.3c2.9,0,5.7-1.2,7.8-3.3c2.1-2.1,3.2-5,3.2-8V87.6C294.2,60.1,278.7,43.7,252.7,43.7z">
  </path>
  <path class="st0" d="M423.2,43.7c-14.6,0-24.6,4.7-32,15.1c-5.8-9.2-17.5-15.1-30.3-15.1c-11.4,0-18.9,3-26.4,11v-0.5
		c0-2.8-1.1-5.5-3-7.5c-1.9-2-4.5-3.1-7.3-3.1c-2.7,0-5.3,1.1-7.3,3.1c-1.9,2-3,4.7-3,7.5v87.1c0,3,1.2,5.9,3.2,8s4.8,3.3,7.8,3.3
		s5.7-1.2,7.7-3.3s3.2-5,3.2-8v-49c0-18.8,7.1-27.6,22.2-27.6c13.5,0,20.3,8.6,20.3,25.6v51c0,3,1.2,5.9,3.2,8
		c2.1,2.1,4.8,3.3,7.8,3.3c2.9,0,5.7-1.2,7.8-3.3c2.1-2.1,3.2-5,3.2-8V92c0-19.2,6.4-27.4,21.3-27.4c14,0,21.2,9.3,21.2,27.7v48.8
		c0,3,1.2,5.9,3.2,8c2.1,2.1,4.8,3.3,7.8,3.3c2.9,0,5.7-1.2,7.7-3.3s3.2-5,3.2-8V87.6C464.7,60.1,449.2,43.7,423.2,43.7z">
  </path>
  <path class="st0" d="M564.3,54.3v3c-7.7-9-18.7-13.7-32.2-13.7c-30.1,0-52.7,24.2-52.7,56.2c0,29.6,23.5,52.8,53.4,52.8
		c13.1,0,24.3-5.2,31.5-14.5v3.4c0,3,1.2,5.9,3.2,8c2.1,2.1,4.8,3.3,7.8,3.3c2.9,0,5.7-1.2,7.7-3.3c2.1-2.1,3.2-5,3.2-8V54.3
		c0-2.8-1.1-5.5-3-7.5c-1.9-2-4.5-3.1-7.3-3.1h-1.4c-1.3,0-2.7,0.3-3.9,0.8c-1.2,0.5-2.4,1.3-3.3,2.3c-1,1-1.7,2.1-2.2,3.4
		C564.6,51.6,564.3,52.9,564.3,54.3z M564.7,98.5c0,18.4-14.4,33.3-32.1,33.3c-17,0-31.4-15.3-31.4-33.3c0-18.7,14.1-33.9,31.4-33.9
		C550.9,64.6,564.7,79.2,564.7,98.5z">
  </path>
  <path class="st0" d="M113.4,116.1L113.4,116.1c-3.8-0.5-6.7,1.5-10.6,4.3c-5.8,4.1-13.1,9.2-27.2,9.8c-13.8,0.2-26.1-4.3-35.5-13
		c-8.5-7.8-14.9-18.8-17-30.9c-4-22.6,5.7-50.3,34.7-61c5.7-2,11.7-2.8,17.8-2.6c11,0.5,21.3,4.5,30,11.8c2.2,1.8,4.9,2.7,7.7,2.4
		c2.8-0.3,5.3-1.7,7.1-3.8c2.7-3.7,3.2-7.4,1.6-11.1C116.7,9.7,90.7,1.6,81.8,0.6c-3-0.4-6-0.6-9.1-0.6c-17.1,0-34,6.6-47.3,18.7
		C9.1,33.5-0.2,54.6,0,76.5c-0.3,17.6,5.9,35,17.3,49.2c11.5,14.3,27,23.6,43.6,26.2c3.9,0.7,7.8,1,11.8,1
		c17.1,0,33.5-6.2,46.4-17.5c3.3-2.7,4.5-7.1,3.2-11.5C121,119.5,117.6,116.5,113.4,116.1z">
  </path>
  <path class="st0" d="M104.6,62.3c-1.4,0.3-2.8,0.8-4,1.7c-1.2,0.8-2.2,1.9-3,3.1c-1.7,2.6-4,4.7-6.7,6.2c-2.7,1.5-5.7,2.2-8.7,2.2
		c-3,0-6-0.8-8.7-2.2c-2.7-1.5-5-3.6-6.7-6.2c-0.8-1.2-1.8-2.3-3-3.1c-1.2-0.8-2.5-1.4-4-1.7c-0.7-0.1-1.4-0.2-2.1-0.2
		c-2,0-3.9,0.6-5.6,1.6c-1.7,1.1-3.1,2.6-4,4.4c-0.9,1.8-1.4,3.8-1.3,5.9c0.1,2,0.8,4,1.9,5.7c3.7,5.6,8.7,10.2,14.5,13.4
		c5.8,3.2,12.3,4.9,19,4.9c6.6,0,13.1-1.7,19-4.9c5.8-3.2,10.8-7.8,14.5-13.4c1.2-1.8,1.9-4,1.9-6.2c0-2.2-0.6-4.4-1.8-6.3
		c-1.2-1.9-2.9-3.3-4.9-4.2C109,62.1,106.8,61.9,104.6,62.3L104.6,62.3z">
  </path>
  <path class="st0" d="M621.6,135c0-2.2-1.5-4.2-5.1-4.2h-4.9v14.4h2.3v-5.8h2.5l3.3,5.8h2.6l-3.7-6.1
		C620.6,138.4,621.6,136.9,621.6,135z M613.8,137.4v-4.7h2.9c1.6,0,2.5,0.8,2.5,2.3c0,1.9-1.2,2.4-2.6,2.4H613.8z">
  </path>
  <path class="st0" d="M616.1,124.4c-2.7,0-5.3,0.8-7.5,2.3c-2.2,1.5-3.9,3.7-4.9,6.2c-1,2.5-1.3,5.3-0.8,8c0.5,2.7,1.8,5.1,3.7,7.1
		c1.9,1.9,4.3,3.2,6.9,3.8c2.6,0.5,5.3,0.3,7.8-0.8s4.6-2.8,6-5.1c1.5-2.3,2.3-4.9,2.3-7.7c0-3.7-1.4-7.2-3.9-9.8
		C623.1,125.9,619.7,124.4,616.1,124.4z M616.1,150.1c-2.3,0-4.5-0.7-6.4-2c-1.9-1.3-3.4-3.1-4.2-5.3c-0.9-2.2-1.1-4.5-0.7-6.8
		c0.4-2.3,1.5-4.4,3.1-6c1.6-1.7,3.7-2.8,5.9-3.2c2.2-0.5,4.5-0.2,6.6,0.7c2.1,0.9,3.9,2.4,5.2,4.4c1.3,1.9,1.9,4.2,1.9,6.6
		c0,3.1-1.2,6.1-3.4,8.3C622.1,148.8,619.2,150.1,616.1,150.1z">
  </path>
 </g>
</svg>